<?xml version="1.0" encoding="iso-8859-1"?>
<!-- Generator: Adobe Illustrator 24.1.2, SVG Export Plug-In . SVG Version: 6.00 Build 0)  -->
<svg version="1.1" id="Layer_1" xmlns="http://www.w3.org/2000/svg" xmlns:xlink="http://www.w3.org/1999/xlink" x="0px" y="0px"
	 viewBox="0 0 800.253 498.096" style="enable-background:new 0 0 800.253 498.096;" xml:space="preserve">
<path d="M151.085,6.787c-6.062,0.444-11.851,2.472-17.714,3.979c-5.684,1.46-11.418,2.724-17.189,3.789
	c-11.606,2.141-23.333,3.406-35.123,3.888c-11.272,0.461-22.917,0.674-33.305,5.61c-8.264,3.927-15.873,11.312-17.182,20.734
	c-1.225,8.815,3.34,20.366,13.188,21.811c0.8,0.117,1.554-0.132,1.889-0.927c0.282-0.669,0.073-1.672-0.655-2
	c-6.773-3.049-10.224-10.229-9.519-17.413c0.799-8.139,8.085-14.35,15.169-17.63c9.563-4.428,20.579-4.265,30.883-4.643
	c11.345-0.416,22.66-1.543,33.862-3.39c6.263-1.033,12.488-2.301,18.656-3.798c6.146-1.492,12.63-2.92,18.044-6.297
	C153.663,9.518,153.154,6.635,151.085,6.787z"/>
<path d="M107.336,44.529c-0.908-4.043-1.929-10.802-7.258-11.17c-3.354-0.232-7.102,4.919-3.637,7.252
	c0.995,0.67,2.149-0.843,1.278-1.656c-0.871-0.814,0.429-1.851,1.284-1.945c1.228-0.136,1.985,1.218,2.42,2.177
	c0.751,1.654,0.957,3.588,1.276,5.357c0.448,2.493,0.893,4.987,1.32,7.484c1.65,9.653,3.264,19.315,3.682,29.116
	c0.694,16.279-1.88,32.819-11.005,46.632c-2.238,3.388-4.834,6.49-7.673,9.388c-2.943,3.004-6.349,5.343-9.549,8.033
	c-1.203,1.011,0.099,2.861,1.463,2.514c4.105-1.044,7.826-3.633,11.074-6.269c3.372-2.736,6.234-6.046,8.705-9.608
	c4.886-7.042,8.27-15.175,10.258-23.494C116.007,87.275,111.994,65.27,107.336,44.529z"/>
<path d="M208.793,131.373c-6.396,3.917-14.994,2.193-20.285-2.827c-4.81-4.565-7.067-10.926-7.778-17.404
	c2.165-7.584,2.396-15.808,1.924-23.609c-0.077-1.275-0.921-2.375-2.235-2.531c-1.165-0.139-2.605,0.566-2.828,1.846
	c-1.35,7.771-2.682,15.843-2.04,23.744c-0.648,2.06-1.46,4.069-2.494,5.999c-3.622,6.758-10.067,12.974-18.044,13.682
	c-7.348,0.653-15.273-2.874-17.52-10.35c-2.677-8.906,2.271-17.648,8.26-23.915c6.284-6.574,16.844-15.222,26.237-9.131
	c1.336,0.866,2.783-1.078,1.68-2.178c-3.666-3.657-8.87-4.482-13.815-3.523c-5.384,1.044-10.03,4.606-14.043,8.159
	c-7.791,6.897-14.966,16.342-14.077,27.338c0.407,5.036,2.44,9.896,6.273,13.282c3.513,3.104,7.913,4.845,12.542,5.377
	c9.77,1.123,18.581-4.272,24.251-11.896c0.919-1.236,1.737-2.52,2.472-3.84c0.008,0.025,0.014,0.051,0.022,0.077
	c2.883,8.956,9.619,17.084,19.363,18.481c5.232,0.75,10.374-0.313,14.454-3.774C212.782,132.963,210.626,130.251,208.793,131.373z"
	/>
<path d="M252.62,84.269c-0.877-5.329-3.226-10.937-7.518-14.402c-4.115-3.321-9.702-4.756-14.854-3.256
	c-5.103,1.486-8.732,5.766-9.492,11.006c-0.769,5.302,0.889,10.832,3.949,15.173c3.473,4.927,8.184,8.66,12.458,12.841
	c3.834,3.751,7.554,8.361,8.275,13.865c0.674,5.147-2.193,9.532-6.634,11.907c-5.146,2.752-11.245,2.033-16.537,0.098
	c-5.323-1.946-11.18-5.328-13.627-10.7c-0.954-2.095-1.211-4.474-0.681-6.749c0.262-1.125,0.655-2.267,1.284-3.242
	c0.667-1.035,1.161-1.983,2.222-2.648c1.123-0.704,0.415-2.554-0.918-2.178c-1.028,0.29-2.279,0.697-3.207,1.237
	c-1.072,0.624-1.901,1.752-2.593,2.757c-1.413,2.052-1.982,4.826-1.988,7.283c-0.013,5.688,3.904,10.526,8.239,13.774
	c9.45,7.08,24.154,10.454,33.807,1.999c4.422-3.873,6.177-9.606,5.105-15.328c-1.132-6.047-5.135-11.198-9.441-15.383
	c-4.197-4.08-9.099-7.718-12.327-12.677c-2.531-3.888-4.104-9.301-2.224-13.784c2.162-5.158,8.493-6.354,13.317-4.524
	c5.664,2.149,9.108,8.139,10.521,13.718C250.236,86.945,252.924,86.116,252.62,84.269z"/>
<path d="M308.849,138.989c-2.354,2.588-6.11,3.535-9.365,3.46c-3.521-0.081-7.116-1.714-9.543-4.121
	c-3.251-3.222-5.314-7.43-6.729-11.734c-1.682-5.118-2.732-10.457-3.771-15.734c-4.538-23.057-6.399-46.659-5.39-70.144
	c0.284-6.6,0.793-13.189,1.53-19.754c0.374-3.33,0.807-6.654,1.303-9.968c0.487-3.257,1.192-6.556,1.291-9.849
	c0.043-1.42-1.892-1.513-2.34-0.317c-1.107,2.957-1.597,6.18-2.146,9.285c-0.526,2.977-1.005,5.962-1.437,8.954
	c-0.889,6.159-1.593,12.345-2.092,18.547c-0.998,12.401-1.222,24.838-0.588,37.263c0.636,12.484,2.089,24.958,4.393,37.245
	c1.914,10.21,3.713,22.481,11.661,29.972c3.768,3.551,8.685,5.431,13.859,5.389c4.913-0.039,9.396-2.272,11.513-6.838
	C311.605,139.332,309.97,137.757,308.849,138.989z"/>
<path d="M332.461,43.921c-1.814,0.767-3.503,1.792-5.326,2.544c-1.923,0.793-3.885,1.539-5.883,2.123
	c-3.927,1.148-7.902,1.867-11.994,2.021c-9.051,0.34-17.937-1.771-26.452-4.674c-4.415-1.505-8.733-3.254-13.059-4.993
	c-4.366-1.755-8.839-3.341-13.58-3.612c-7.146-0.408-16.126,3.602-17.304,11.464c-0.606,4.048,1.299,7.786,4.656,10.051
	c2.947,1.988,6.885,2.174,9.702-0.115c0.985-0.8-0.29-2.414-1.349-1.749c-2.453,1.542-5.168,0.273-6.931-1.733
	c-1.79-2.037-2.15-4.547-0.992-6.987c1.232-2.595,3.88-4.382,6.549-5.25c3.536-1.149,7.253-0.699,10.776,0.283
	c4.143,1.154,8.075,2.957,12.062,4.542c4.056,1.613,8.154,3.132,12.331,4.402c8.002,2.434,16.43,4,24.822,3.512
	c4.291-0.25,8.657-0.919,12.713-2.379c4.001-1.44,8.447-3.6,11.151-6.997C335.49,44.949,334.118,43.221,332.461,43.921z"/>
<path d="M393.416,123.28c-1.885,0.241-3.729,0.139-5.608,0.4c-1.821,0.252-3.624,0.584-5.435,0.899
	c-3.505,0.61-7.041,1.002-10.593,1.206c-7.055,0.405-14.182,0.094-21.158-1.05c-3.613-0.592-7.2-1.383-10.731-2.35
	c-3.025-0.829-6.121-1.701-8.881-3.223c-2.312-1.275-4.34-3.057-5.318-5.567c-1.038-2.664-0.899-5.639-0.244-8.375
	c0.21-0.878,0.481-1.737,0.782-2.586c4.138,0.599,8.372,0.679,12.45,0.339c7.582-0.631,15.182-2.67,21.937-6.217
	c5.619-2.951,12.116-9.036,11.461-16.016c-0.334-3.559-2.268-6.598-5.3-8.483c-3.139-1.952-6.889-2.344-10.476-1.763
	c-3.746,0.608-7.323,2.344-10.601,4.197c-3.178,1.796-6.17,3.916-8.962,6.265c-5.357,4.507-10.286,10.189-13.463,16.461
	c-0.168,0.332-0.33,0.671-0.49,1.012c-1.924-0.177-3.846-0.407-5.767-0.67c-1.498-0.205-2.03,1.676-0.623,2.26
	c1.638,0.679,3.336,1.229,5.069,1.676c-1.811,5.259-2.245,11.108,0.692,16.019c3.82,6.388,11.756,8.684,18.496,10.521
	c7.803,2.127,15.952,3.217,24.033,3.393c3.967,0.087,7.938-0.062,11.887-0.447c4.088-0.398,8.321-0.852,12.257-2.074
	c1.932-0.6,3.653-1.653,5.493-2.478C395.903,125.92,395.161,123.057,393.416,123.28z M334.628,89.452
	c4.353-4.758,9.501-8.71,15.238-11.658c4.562-2.344,12.015-4.818,15.892,0.159c3.533,4.535-1.522,10.055-5.161,12.639
	c-5.933,4.212-13.537,6.312-20.63,7.478c-4.015,0.66-8.031,0.821-12.045,0.682C329.699,95.355,332.078,92.239,334.628,89.452z"/>
<path d="M310.22,233.622c-0.961-6.658-5.162-12.313-10.855-15.765c-7.747-4.698-17.232-4.912-25.472-1.739
	c-5.681,0.011-11.014,3.62-14.543,8.083c-2.313,2.925-4.154,6.135-5.941,9.398c-1.94,3.544-3.858,7.111-5.269,10.906
	c-2.433,6.54-2.945,14.288,0.796,20.471c3.83,6.329,11.089,8.452,18.124,7.797c7.201-0.671,14.417-3.028,20.999-5.952
	c6.652-2.956,12.797-7.262,17.036-13.254C309.146,247.839,311.228,240.604,310.22,233.622z M302.436,246.466
	c-5.421,11.475-18.174,16.698-29.773,19.643c-5.189,1.318-11.608,2.354-16.289-0.964c-4.253-3.014-5.397-9.005-4.644-13.872
	c0.596-3.852,2.124-7.485,3.847-10.953c1.552-3.123,3.163-6.251,4.964-9.242c4.933-3.319,9.747-7.057,15.403-9.034
	c5.55-1.94,10.788-2.349,16.182-0.603c4.686,1.516,9.026,4.763,11.112,9.519C305.35,235.776,304.734,241.6,302.436,246.466z"/>
<path d="M373.52,171.837c-1.665-3.306-5.299-5.121-8.939-4.783c-3.974,0.369-7.177,2.523-9.504,5.692
	c-2.279,3.103-3.447,6.898-4.699,10.494c-6.032,17.333-12.197,34.62-18.313,51.924c-6.07,17.172-12.11,34.354-18.152,51.536
	c-2.423,6.89-5.111,14.055-10.046,19.586c-4.259,4.773-10.746,8.436-17.298,8.101c-1.602-0.082-3.265-0.454-4.801-0.905
	c-1.922-0.565-2.922,2.102-1.324,3.141c5.923,3.854,14.015,2.594,19.928-0.612c6.487-3.517,11.016-9.661,14.196-16.179
	c3.553-7.286,5.964-15.136,8.641-22.769c2.94-8.382,5.813-16.787,8.719-25.18c5.838-16.866,11.676-33.732,17.514-50.597
	c1.466-4.236,2.929-8.474,4.416-12.704c1.28-3.64,2.341-7.496,4.156-10.917c1.411-2.659,3.544-5.163,6.725-5.522
	c2.93-0.331,4.532,1.676,4.98,4.382c0.536,3.23,0.02,6.86-0.463,10.069c-0.554,3.68-1.402,7.336-2.513,10.887
	c-2.174,6.945-5.498,13.651-9.676,19.609c-1.062,1.515-2.177,2.986-3.359,4.409c-1.342,1.616,0.815,3.893,2.348,2.348
	c10.987-11.074,17.521-25.783,18.739-41.308C375.077,178.947,375.184,175.14,373.52,171.837z"/>
<path d="M383.883,230.265c-0.994-0.128-1.972-0.321-2.961-0.477c-1.159-0.183-2.327-0.138-3.497-0.198
	c-2.061-0.105-4.146,0.026-6.209,0.067c-4.308,0.086-8.613,0.396-12.916,0.632c-8.448,0.463-16.891,0.998-25.334,1.535
	c-2.404,0.153-4.803,0.389-7.203,0.6c-1.252,0.11-2.501,0.2-3.733,0.463c-0.583,0.124-0.962,0.433-1.479,0.628
	c-0.448,0.169-1.078,0.189-1.547,0.276c-1.33,0.247-0.895,2.132,0.301,2.225c0.523,0.041,1.046,0.082,1.567,0.138
	c1.511,0.783,3.473,0.532,5.139,0.503c2.152-0.038,4.307-0.045,6.458-0.135c4.14-0.174,8.279-0.347,12.419-0.521
	c8.347-0.35,16.761-0.557,25.086-1.264c2.414-0.205,4.859-0.317,7.258-0.649c1.139-0.158,2.334-0.246,3.454-0.498
	c1.182-0.266,2.338-0.665,3.519-0.947C385.646,232.299,385.137,230.427,383.883,230.265z"/>
<path d="M391.512,312.743c-0.231-3.129-4.63-3.132-4.867,0c-0.603,7.952-2.287,16.758-7.534,23.055
	c-4.342,5.211-11.068,7.919-17.606,6.474c-3.454-0.763-6.322-2.561-8.059-5.649c-1.133-2.013-4.924-1.275-4.627,1.253
	c0.505,4.296,0.997,8.593,1.515,12.887c0.523,4.33,1.135,8.606,2.485,12.76c0.499,1.534,2.587,1.176,2.724-0.369
	c0.376-4.232,0.07-8.42-0.39-12.639c-0.21-1.926-0.418-3.853-0.626-5.78c4.524,2.804,10.404,3.42,15.673,2.232
	c8.019-1.808,13.652-7.82,17.023-14.981c-0.469,14.279-2.913,28.482-7.168,42.147c-3.053,9.805-7.022,19.304-11.875,28.355
	c-2.438,4.546-5.092,8.977-7.956,13.268c-2.79,4.181-5.711,8.37-9.044,12.141c-3.298,3.731-7.567,7.438-12.769,7.823
	c-4.224,0.313-8.513-1.456-10.726-5.195c-0.719-1.215-2.412-0.37-2.178,0.918c0.81,4.447,4.771,7.181,8.97,8.133
	c4.913,1.113,9.704-0.148,13.816-2.968c4.481-3.072,7.896-7.36,11.117-11.671c3.254-4.355,6.262-8.899,9.041-13.571
	c11.216-18.86,18.62-40.007,21.753-61.719C391.964,337.443,392.421,325.043,391.512,312.743z"/>
<path d="M462.893,311.654c-0.678-0.996-2.031-1.266-2.941-0.379c-14.17,13.818-26.496,29.347-36.012,46.739
	c-2.93,5.356-5.602,10.856-8.002,16.473c-10.701,4.914-21.906,8.737-33.361,11.49c-5.784,1.39-11.621,2.42-17.506,3.268
	c-2.894,0.417-5.8,0.696-8.696,1.077c-3.088,0.407-6.14,1.032-9.24,1.388c-0.793,0.091-0.813,1.18,0,1.25
	c2.784,0.24,5.571,0.442,8.361,0.593c2.755,0.15,5.588-0.175,8.335-0.4c5.58-0.458,11.147-1.339,16.639-2.414
	c10.821-2.117,21.379-5.316,31.573-9.518c0.47-0.194,0.936-0.399,1.405-0.596c-4.105,10.621-7.256,21.611-9.351,32.799
	c-1.022,5.46-1.757,10.973-2.246,16.506c-0.495,5.603-0.497,11.083-0.044,16.688c0.144,1.78,2.637,1.788,2.773,0
	c0.734-9.582,1.495-19.204,3.013-28.698c1.537-9.61,3.846-19.094,6.878-28.341c1.237-3.774,2.604-7.505,4.081-11.19
	c7.912-3.607,15.588-7.767,22.815-12.594c8.59-5.738,16.884-12.702,21.822-21.952C468.413,334.055,469.331,321.111,462.893,311.654z
	 M459.898,339.885c-4.271,8.844-11.765,15.512-19.759,20.964c-6.029,4.112-12.334,7.788-18.844,11.056
	c5.31-11.913,11.87-23.268,19.568-33.803c5.9-8.074,12.559-15.693,19.907-22.495C464.421,323.21,463.524,332.376,459.898,339.885z"
	/>
<path d="M475.686,427.58c-2.44,0.808-4.92,1.478-7.332,2.354c-2.499,0.908-5.031,1.707-7.608,2.362
	c-4.551,1.156-9.335,1.863-14,0.939c-7.035-1.393-14.532-6.55-14.702-14.386c-0.178-8.205,7.125-14.593,13.157-19.049
	c3.487-2.576,7.475-5.928,11.911-6.536c2.854-0.391,6.857,0.926,7.09,4.239c0.149,2.128-1.409,3.983-2.909,5.299
	c-1.802,1.581-4.086,2.452-6.363,3.086c-5.297,1.475-10.488,0.63-15.756-0.477c-0.78-0.164-1.523,0.828-0.836,1.436
	c4.17,3.695,10.207,4.538,15.575,3.837c5.364-0.7,11-3.25,13.823-8.099c2.679-4.602,1.244-10.285-3.508-12.811
	c-5.002-2.659-10.544-1.23-15.142,1.576c-4.464,2.723-8.774,6.062-12.589,9.635c-3.547,3.323-6.71,7.256-8.28,11.913
	c-1.572,4.661-1.124,9.868,1.303,14.153c2.349,4.146,6.309,7.297,10.643,9.171c5.67,2.452,11.61,2.655,17.63,1.471
	c3.311-0.651,6.466-1.768,9.567-3.083c1.521-0.645,3.127-1.26,4.548-2.108c1.559-0.93,3.105-1.888,4.668-2.816
	C477.667,429.037,476.957,427.159,475.686,427.58z"/>
<path d="M559.861,439.018c-0.363-0.862-1.177-1.13-2.051-1.006c-9.465,1.341-20.148,5.494-29.007-0.252
	c-5.371-3.484-7.759-9.617-8.198-15.865c5.514-8.267,8.474-18.467,7.829-28.402c-0.069-1.07-0.702-2.035-1.773-2.329
	c-0.956-0.263-2.292,0.15-2.728,1.11c-4.044,8.895-8.292,18.379-8.205,28.199c-3.47,4.909-8.006,9.209-13.388,11.786
	c-5.57,2.666-13.992,3.793-17.817-2.282c-3.9-6.194-0.137-14.649,3.199-20.224c2.438-4.075,5.301-8.261,9.149-11.132
	c1.859-1.387,3.948-2.402,6.209-2.926c1.43-0.331,2.78-0.341,4.145-0.213c-0.209,0.361-0.125,0.87,0.272,1.134
	c1.947,1.296,4.262-0.026,4.731-2.182c0.192-0.882-0.13-1.779-0.917-2.254c-4.275-2.583-10.215-1.226-14.353,0.939
	c-4.48,2.344-7.878,6.291-10.743,10.365c-4.902,6.971-9.863,16.327-7.509,25.117c1.095,4.087,4.024,7.592,7.911,9.286
	c3.921,1.708,8.306,1.667,12.411,0.665c6.881-1.68,12.81-6.035,17.489-11.336c0.014,0.063,0.022,0.125,0.037,0.187
	c1.184,4.997,3.763,9.873,7.777,13.162c4.499,3.687,10.157,5.204,15.912,5.156c6.429-0.054,13.139-1.74,18.908-4.531
	C559.928,440.812,560.172,439.758,559.861,439.018z"/>
<path d="M623.85,383.192c-2.742,0.051-5.626,0.893-8.182,1.86c-2.645,1-5.268,2.118-7.77,3.438
	c-5.068,2.672-9.803,5.908-14.144,9.646c-8.517,7.332-15.472,16.533-20.224,26.718c-1.441,3.089-2.687,6.272-3.685,9.529
	c-3.889-13.833-7.261-27.827-11.77-41.466c-0.477-1.442-2.545-0.854-2.26,0.623c3.301,17.098,8.324,33.833,12.027,50.848
	c0.494,2.272,4.023,2.225,4.548,0c2.482-10.515,6.636-20.424,12.915-29.251c6.151-8.648,14.131-16.155,23.108-21.81
	c2.502-1.576,5.078-3.055,7.726-4.372c2.705-1.346,5.612-2.498,8.155-4.124C625.004,384.375,624.753,383.175,623.85,383.192z"/>
<path d="M675.062,438.987c-7.222,0.892-14.48,2.027-21.751,2.452c-7.348,0.43-14.749,0.266-22.056-0.672
	c-2.42-0.311-5.257-0.706-7.17-2.358c-2.023-1.748-2.162-4.608-1.763-7.073c0.406-2.505,1.292-4.957,2.284-7.305
	c5.235,0.165,10.518-0.55,15.59-2.139c6.159-1.929,11.872-5.194,16.676-9.502c4.769-4.276,10.393-11.745,6.236-18.26
	c-1.816-2.846-4.953-4.366-8.23-4.74c-3.492-0.399-6.986,0.861-9.919,2.681c-6.035,3.744-11.222,9.136-15.531,14.729
	c-3.185,4.134-5.935,8.584-8.191,13.279c-5.656-0.221-11.254-1.456-16.349-3.805c-1.234-0.569-2.3,1.143-1.084,1.855
	c4.928,2.887,10.319,4.695,15.856,5.479c-0.25,0.602-0.502,1.203-0.736,1.812c-1.224,3.183-2.108,6.672-1.672,10.099
	c0.46,3.612,2.492,6.721,5.75,8.425c3.263,1.706,6.987,2.122,10.586,2.574c4.049,0.51,8.122,0.74,12.202,0.743
	c8.192,0.005,16.543-0.826,24.397-3.221c1.941-0.592,3.779-1.432,5.633-2.251C677.15,441.202,676.518,438.807,675.062,438.987z
	 M629.629,414.293c3.286-5.234,7.397-9.959,12.015-14.057c3.851-3.418,9.644-8.199,15.113-5.524
	c5.925,2.899,1.268,9.791-1.86,12.908c-3.876,3.863-8.542,6.796-13.583,8.895c-4.667,1.944-9.729,3.114-14.853,3.477
	C627.426,418.042,628.474,416.132,629.629,414.293z"/>
<path d="M732.226,454.137c0.332-8.468,0.476-16.95,0.728-25.418c0.137-4.598,0.358-9.202,0.392-13.802
	c0.03-3.989-0.375-8.183-2.881-11.453c-5.001-6.526-14.624-5.64-20.646-1.155c-3.407,2.537-6.026,5.829-8.484,9.26
	c-2.585,3.608-5,7.328-7.246,11.156c0.499-2.963,0.921-5.938,1.264-8.923c0.25-2.183,0.469-4.372,0.604-6.565
	c0.068-1.097,0.126-2.194,0.173-3.291c0.048-1.135-0.167-2.136-0.437-3.235c-0.384-1.556-2.508-1.374-2.976,0
	c-0.379,1.112-0.634,2.065-0.726,3.235c-0.086,1.098-0.181,2.195-0.292,3.291c-0.204,2.035-0.413,4.068-0.673,6.097
	c-0.535,4.164-1.262,8.307-2.138,12.413c-1.144,5.36-2.571,10.654-4.26,15.864c-0.177,0.417-0.36,0.831-0.534,1.249
	c-0.987,2.366-1.618,4.846-2.479,7.254c-0.456,1.275,0.515,2.745,1.752,3.085c1.399,0.384,2.616-0.476,3.085-1.752
	c0.688-1.828,1.602-3.574,2.412-5.351c0.844-1.852,1.612-3.739,2.466-5.587c1.74-3.766,3.627-7.465,5.654-11.085
	c1.991-3.556,4.13-7.024,6.362-10.434c2.066-3.157,4.162-6.373,6.723-9.158c2.233-2.429,4.833-4.496,8.005-5.215
	c2.429-0.55,5.425-0.308,7.338,1.416c2.385,2.149,2.624,5.683,2.624,8.688c0,4.25-0.244,8.512-0.379,12.76
	c-0.32,10.138-0.808,20.286-0.953,30.428c-0.035,2.417,2.917,3.426,4.587,1.9c1.067-0.976,1.75-1.862,2.386-3.155
	C734.285,455.414,733.46,454.205,732.226,454.137z"/>
<path d="M800.226,405.778c-1.87-9.033-10.183-15.474-19.21-16.148c-9.446-0.705-17.508,5.97-20.475,14.625
	c-1.445,4.217-1.647,9.005-0.236,13.259c1.585,4.781,4.968,8.591,8.052,12.461c2.974,3.731,5.736,7.855,5.542,12.823
	c-0.194,4.971-3.089,9.529-6.691,12.788c-4.096,3.706-9.479,5.651-14.776,6.895c-5.992,1.407-12.157,2.041-18.249,2.859
	c-13.375,1.795-26.751,3.581-40.126,5.371c-26.98,3.61-53.964,7.194-80.936,10.866c-13.467,1.834-26.942,3.62-40.396,5.545
	c-13.422,1.92-26.935,3.556-40.28,5.966c-3.236,0.584-6.465,1.21-9.697,1.816c-1.778,0.333-1.394,3.344,0.431,3.184
	c26.712-2.333,53.289-6.316,79.847-9.974c26.376-3.633,52.744-7.325,79.112-11.019c13.273-1.86,26.547-3.719,39.82-5.579
	c6.624-0.928,13.249-1.852,19.874-2.779c5.728-0.802,11.514-1.638,16.986-3.587c9.753-3.473,19.183-11.593,19.261-22.754
	c0.035-5.016-2.303-9.424-5.276-13.31c-2.909-3.802-6.547-7.364-8.377-11.868c-3.151-7.755,0.5-17.506,7.602-21.741
	c7.588-4.525,17.68-1.353,23.07,5.16c1.393,1.684,2.42,3.622,3.058,5.71C798.561,407.679,800.505,407.128,800.226,405.778z"/>
<path d="M193.143,368.07c-8.769-26.978-29.049-49.154-51.111-66.209c-23.479-18.15-53.326-35.657-60.861-66.677
	c-3.272-13.469-1.515-28.96,8.152-39.501c8.257-9.004,22.229-14.482,33.984-9.188c10.231,4.608,17.81,16.729,14.729,28.016
	c-3.484,12.768-19.032,19.189-30.549,12.92c-5.547-3.02-9.834-7.438-11.583-13.618c-0.158-0.56-0.987-0.324-0.866,0.239
	c1.252,5.858,5.018,11.787,10.08,15.071c5.302,3.439,11.823,4.697,17.988,3.223c6.219-1.486,11.821-5.453,15.303-10.811
	c3.314-5.099,4.279-11.274,3.133-17.202c-2.285-11.813-12.43-21.566-24.361-23.121c-12.908-1.682-25.732,5.223-33.241,15.497
	c-8.646,11.829-9.583,27.972-5.756,41.726c3.969,14.264,13.11,26.522,23.551,36.759c11.614,11.387,25,20.64,37.656,30.787
	c11.081,8.885,21.431,18.814,30.141,30.06c16.442,21.228,27.38,48.853,19.074,75.626c-7.38,23.79-28.307,42.466-52.029,49.162
	c-27.228,7.685-57.103,0.043-79.669-16.263c-23.025-16.637-38.335-42.38-46.07-69.375c-7.594-26.499-8.12-54.829-2.284-81.728
	c5.777-26.628,17.583-51.965,34.678-73.221c2.094-2.603,4.271-5.134,6.509-7.614c2.229-2.469,4.252-5.216,6.651-7.52
	c1.126-1.082-0.588-2.793-1.713-1.713c-2.522,2.422-5.29,4.534-7.684,7.101c-2.275,2.44-4.475,4.948-6.599,7.52
	c-4.351,5.269-8.394,10.789-12.08,16.543c-7.301,11.4-13.256,23.654-17.824,36.395c-9.158,25.546-12.577,53.382-9.24,80.346
	c3.475,28.077,13.935,55.592,32.065,77.513c18.133,21.923,44.4,36.987,72.863,39.867c13.575,1.374,27.593-0.324,40.272-5.447
	c11.832-4.781,22.607-12.149,31.188-21.617c8.518-9.4,14.902-20.876,17.714-33.289C198.37,395.022,197.347,381.006,193.143,368.07z"
	/>
<path d="M756.847,240.373c-9.01-13.95-21.555-24.925-35.569-33.659c-14.822-9.237-30.969-16.047-46.982-22.901
	c-15.752-6.743-31.309-13.879-46.542-21.732c-30.447-15.696-59.654-33.792-87.282-54.042c-4.613-3.381-9.16-6.846-13.678-10.349
	c3.737-5.183,7.55-10.306,11.411-15.365c9.659-12.655,20.256-24.965,33.014-34.604c5.966-4.507,12.392-8.375,19.229-11.41
	c0.853-0.378,0.113-1.61-0.729-1.248c-28.134,12.074-47.16,37.09-64.542,61.364c-21.997-17.165-42.892-35.71-62.727-55.344
	c-5.853-5.794-11.659-11.662-17.235-17.725c-1.057-1.15-2.767,0.566-1.713,1.713c11.418,12.413,23.017,24.614,35.361,36.116
	c12.195,11.363,24.821,22.265,37.858,32.651c2.188,1.743,4.403,3.451,6.612,5.167c-0.493,0.691-0.985,1.381-1.476,2.07
	c-10.021,14.053-19.975,28.375-26.974,44.227c-7.005,15.866-10.378,32.883-8.301,50.201c2.074,17.298,8.654,33.789,17.398,48.761
	c7.986,13.674,17.805,26.322,28.813,37.692c21.716,22.433,48.345,39.925,77.284,51.557c14.917,5.995,30.508,10.477,46.379,13.074
	c17.88,2.925,36.403,3.422,54.093-0.977c28.628-7.12,55.367-29.889,58.433-60.608C770.556,269.255,765.328,253.504,756.847,240.373z
	 M761.105,302.317c-6.091,13.065-16.682,23.706-29.044,30.952c-29.738,17.432-66.967,13.879-98.82,4.897
	c-29.542-8.33-57.442-22.74-81.162-42.245c-11.732-9.647-22.453-20.532-31.826-32.488c-10.384-13.247-19.323-27.916-25.159-43.747
	c-5.942-16.118-8.482-33.525-5.317-50.532c3.13-16.823,11.044-32.263,20.129-46.599c4.785-7.551,9.835-14.977,15.046-22.285
	c23.748,18.318,48.722,35.042,74.742,49.961c14.619,8.383,29.562,16.203,44.787,23.428c15.309,7.265,31.021,13.589,46.465,20.548
	c15.604,7.03,31.141,14.978,44.292,26.074c11.954,10.087,22.019,23.046,27.312,37.87
	C767.688,272.54,767.606,288.372,761.105,302.317z"/>
</svg>
